<?xml version="1.0" encoding="UTF-8"?>
<svg version="1.1" xmlns="http://www.w3.org/2000/svg" width="256" height="256">
<path d="M0 0 C0.83182114 -0.00453111 1.66364228 -0.00906223 2.52067012 -0.01373065 C5.3002699 -0.0263629 8.07967345 -0.02475503 10.85929871 -0.02310181 C12.85541027 -0.02908779 14.85151952 -0.0358935 16.84762573 -0.04345703 C22.26506972 -0.06111716 27.68245052 -0.06581242 33.09992051 -0.0670886 C36.48607111 -0.06851076 39.87220567 -0.07278159 43.25835228 -0.07808304 C55.07586562 -0.0965834 66.89333386 -0.10475365 78.71086121 -0.10317993 C89.71945077 -0.10197855 100.72784426 -0.12308028 111.73638421 -0.15466726 C121.19390179 -0.18083502 130.65135534 -0.19154701 140.10890883 -0.19026911 C145.75476232 -0.18975963 151.40044155 -0.19543563 157.04625893 -0.21662521 C162.35771629 -0.23601586 167.66883331 -0.23612624 172.98030281 -0.22159195 C174.92611438 -0.21950379 176.8719473 -0.22420514 178.81772232 -0.23631287 C197.63626356 -0.34579827 197.63626356 -0.34579827 204.59440613 4.26742554 C205.30754376 4.71281488 206.0206814 5.15820423 206.75542927 5.61709023 C214.14549624 10.41593158 219.2697245 17.82274218 221.59440613 26.26742554 C221.78151933 29.10325738 221.87322825 31.83919491 221.86183167 34.67301941 C221.86636278 35.50484055 221.87089389 36.33666169 221.87556231 37.19368953 C221.88819456 39.97328931 221.8865867 42.75269285 221.88493347 45.53231812 C221.89091946 47.52842968 221.89772516 49.52453893 221.9052887 51.52064514 C221.92294882 56.93808913 221.92764409 62.35546993 221.92892027 67.77293992 C221.93034242 71.15909052 221.93461325 74.54522508 221.9399147 77.93137169 C221.95841506 89.74888503 221.96658531 101.56635327 221.9650116 113.38388062 C221.96381022 124.39247018 221.98491194 135.40086367 222.01649892 146.40940362 C222.04266668 155.8669212 222.05337868 165.32437475 222.05210078 174.78192824 C222.05159129 180.42778173 222.05726729 186.07346096 222.07845688 191.71927834 C222.09784752 197.0307357 222.0979579 202.34185272 222.08342361 207.65332222 C222.08133546 209.59913379 222.08603681 211.54496671 222.09814453 213.49074173 C222.20762994 232.30928297 222.20762994 232.30928297 217.59440613 239.26742554 C217.14901678 239.98056317 216.70362743 240.69370081 216.24474144 241.42844868 C211.44590009 248.81851565 204.03908948 253.94274391 195.59440613 256.26742554 C192.75857428 256.45453874 190.02263676 256.54624766 187.18881226 256.53485107 C186.35699112 256.53938219 185.52516998 256.5439133 184.66814214 256.54858172 C181.88854236 256.56121397 179.10913881 256.55960611 176.32951355 256.55795288 C174.33340198 256.56393886 172.33729273 256.57074457 170.34118652 256.57830811 C164.92374253 256.59596823 159.50636174 256.6006635 154.08889174 256.60193968 C150.70274115 256.60336183 147.31660659 256.60763266 143.93045998 256.61293411 C132.11294663 256.63143447 120.29547839 256.63960472 108.47795105 256.63803101 C97.46936149 256.63682963 86.46096799 256.65793135 75.45242804 256.68951833 C65.99491047 256.71568609 56.53745692 256.72639809 47.07990342 256.72512019 C41.43404993 256.7246107 35.7883707 256.7302867 30.14255333 256.75147629 C24.83109596 256.77086693 19.51997895 256.77097731 14.20850945 256.75644302 C12.26269788 256.75435487 10.31686496 256.75905621 8.37108994 256.77116394 C-10.4474513 256.88064935 -10.4474513 256.88064935 -17.40559387 252.26742554 C-18.11873151 251.82203619 -18.83186914 251.37664684 -19.56661701 250.91776085 C-26.95668398 246.1189195 -32.08091224 238.71210889 -34.40559387 230.26742554 C-34.59270707 227.43159369 -34.68441599 224.69565616 -34.67301941 221.86183167 C-34.67755052 221.03001053 -34.68208163 220.19818939 -34.68675005 219.34116155 C-34.69938231 216.56156177 -34.69777444 213.78215822 -34.69612122 211.00253296 C-34.7021072 209.00642139 -34.70891291 207.01031214 -34.71647644 205.01420593 C-34.73413656 199.59676194 -34.73883183 194.17938115 -34.74010801 188.76191115 C-34.74153017 185.37576056 -34.74580099 181.989626 -34.75110245 178.60347939 C-34.76960281 166.78596604 -34.77777305 154.9684978 -34.77619934 143.15097046 C-34.77499796 132.1423809 -34.79609969 121.1339874 -34.82768667 110.12544745 C-34.85385443 100.66792988 -34.86456642 91.21047632 -34.86328852 81.75292283 C-34.86277904 76.10706934 -34.86845504 70.46139011 -34.88964462 64.81557274 C-34.90903527 59.50411537 -34.90914565 54.19299836 -34.89461136 48.88152885 C-34.8925232 46.93571728 -34.89722455 44.98988436 -34.90933228 43.04410934 C-35.01881768 24.22556811 -35.01881768 24.22556811 -30.40559387 17.26742554 C-29.96020452 16.5542879 -29.51481518 15.84115026 -29.05592918 15.1064024 C-22.32730432 4.74452862 -12.07621441 -0.04856601 0 0 Z " fill="#FF2741" transform="translate(34.40559387207031,-0.267425537109375)"/>
<path d="M0 0 C4.62 0 9.24 0 14 0 C14 1.65 14 3.3 14 5 C14.7734375 4.94199219 15.546875 4.88398437 16.34375 4.82421875 C22.66312975 4.55048324 27.04708912 4.81163284 32.37890625 8.3203125 C36.24827565 12.32953862 37.34463946 16.3535791 37.26367188 21.859375 C37.23853516 22.52453125 37.21339844 23.1896875 37.1875 23.875 C37.16719727 24.90753906 37.16719727 24.90753906 37.14648438 25.9609375 C37.1114837 27.64097001 37.05768954 29.3205935 37 31 C37.88751953 31.03867188 37.88751953 31.03867188 38.79296875 31.078125 C44.0359263 31.45445474 47.23949994 32.01159084 51 36 C54.1194255 41.01221085 53.32876233 46.6636713 53.3125 52.375 C53.32861328 53.4990625 53.34472656 54.623125 53.36132812 55.78125 C53.3676602 66.49511251 53.3676602 66.49511251 50 71 C46.01669957 74.37483891 42.19496922 74.37438163 37.1875 74.1875 C36.14819336 74.16719727 36.14819336 74.16719727 35.08789062 74.14648438 C33.39158735 74.11138845 31.69568864 74.05758943 30 74 C29.32880451 72.5437455 28.66318193 71.08492133 28 69.625 C27.62875 68.81289062 27.2575 68.00078125 26.875 67.1640625 C26 65 26 65 26 63 C31.94 62.505 31.94 62.505 38 62 C38.02685095 59.52076199 38.04676547 57.0418116 38.0625 54.5625 C38.07506836 53.50192383 38.07506836 53.50192383 38.08789062 52.41992188 C38.09653588 50.61306441 38.05220011 48.80612397 38 47 C36.31699331 45.31699331 34.17991273 45.77190923 31.87109375 45.68359375 C30.93966553 45.64548584 30.0082373 45.60737793 29.04858398 45.56811523 C27.85692627 45.52501221 26.66526855 45.48190918 25.4375 45.4375 C21.663125 45.293125 17.88875 45.14875 14 45 C14 54.9 14 64.8 14 75 C9.38 75 4.76 75 0 75 C0 65.1 0 55.2 0 45 C-4.62 45 -9.24 45 -14 45 C-14 40.38 -14 35.76 -14 31 C-9.38 31 -4.76 31 0 31 C0 27.04 0 23.08 0 19 C-2.97 19 -5.94 19 -9 19 C-9 14.38 -9 9.76 -9 5 C-6.03 5 -3.06 5 0 5 C0 3.35 0 1.7 0 0 Z " fill="#FFFBFC" transform="translate(179,91)"/>
<path d="M0 0 C10.23 0 20.46 0 31 0 C31 4.62 31 9.24 31 14 C28.36 14 25.72 14 23 14 C23 27.86 23 41.72 23 56 C27.29 56 31.58 56 36 56 C36 60.29 36 64.58 36 69 C20.82 69 5.64 69 -10 69 C-7 60 -7 60 -5 56 C-0.71 56 3.58 56 8 56 C8 42.14 8 28.28 8 14 C5.36 14 2.72 14 0 14 C0 9.38 0 4.76 0 0 Z " fill="#FFF9FA" transform="translate(130,96)"/>
<path d="M0 0 C4.62 0 9.24 0 14 0 C14.09049562 8.50171501 14.16382735 17.00305337 14.20724869 25.50512123 C14.22809247 29.45330373 14.25635049 33.40113863 14.30175781 37.34912109 C14.34533152 41.16169001 14.36916124 44.97392532 14.37950897 48.78672409 C14.38687981 50.23876571 14.40127356 51.69078979 14.42292023 53.14268875 C14.45210976 55.18227333 14.45594986 57.22049289 14.45410156 59.26025391 C14.46298401 60.41941315 14.47186646 61.57857239 14.48101807 62.77285767 C13.88910928 66.74396405 12.48876726 68.88343021 10 72 C6.47320901 74.35119399 4.97120515 74.21443452 0.8125 74.125 C-0.27417969 74.10695313 -1.36085938 74.08890625 -2.48046875 74.0703125 C-3.31191406 74.04710937 -4.14335938 74.02390625 -5 74 C-5.67119549 72.5437455 -6.33681807 71.08492133 -7 69.625 C-7.37125 68.81289062 -7.7425 68.00078125 -8.125 67.1640625 C-9 65 -9 65 -9 63 C-6.36 62.67 -3.72 62.34 -1 62 C-0.67 41.54 -0.34 21.08 0 0 Z " fill="#FFFAFB" transform="translate(50,91)"/>
<path d="M0 0 C1.93166016 0.01740234 1.93166016 0.01740234 3.90234375 0.03515625 C5.19269531 0.04417969 6.48304687 0.05320312 7.8125 0.0625 C8.81152344 0.07410156 9.81054688 0.08570312 10.83984375 0.09765625 C10.41832031 1.1340625 9.99679688 2.17046875 9.5625 3.23828125 C9.00897659 4.60801716 8.45559881 5.97781193 7.90234375 7.34765625 C7.62455078 8.02957031 7.34675781 8.71148437 7.06054688 9.4140625 C5.7613406 12.63859856 4.68507035 15.71674984 3.83984375 19.09765625 C7.79984375 19.09765625 11.75984375 19.09765625 15.83984375 19.09765625 C13.78618326 25.82909896 11.09587644 32.03218678 8.046875 38.375 C6.70474828 40.90601653 6.70474828 40.90601653 6.83984375 43.09765625 C10.30484375 43.59265625 10.30484375 43.59265625 13.83984375 44.09765625 C13.23119354 48.23647767 11.75129283 51.39774676 9.83984375 55.09765625 C6.90179379 55.17852001 3.965963 55.23808455 1.02734375 55.28515625 C0.19396484 55.31029297 -0.63941406 55.33542969 -1.49804688 55.36132812 C-2.70170898 55.37583008 -2.70170898 55.37583008 -3.9296875 55.390625 C-4.66807861 55.40633545 -5.40646973 55.4220459 -6.16723633 55.43823242 C-8.73389464 54.99960834 -9.62189072 54.16712799 -11.16015625 52.09765625 C-10.94517513 47.25711371 -9.06067549 43.08593336 -7.09765625 38.72265625 C-6.81599609 38.08199219 -6.53433594 37.44132812 -6.24414062 36.78125 C-5.55556204 35.21735966 -4.85870914 33.65711684 -4.16015625 32.09765625 C-5.43890625 32.13890625 -6.71765625 32.18015625 -8.03515625 32.22265625 C-10.21484375 32.29296875 -10.21484375 32.29296875 -12.16015625 32.09765625 C-14.16015625 30.09765625 -14.16015625 30.09765625 -14.59375 27.18359375 C-14.42956787 21.57815429 -11.59980178 16.68450163 -9.22265625 11.72265625 C-8.51979492 10.20865234 -8.51979492 10.20865234 -7.80273438 8.6640625 C-3.80556696 0.11760096 -3.80556696 0.11760096 0 0 Z " fill="#FFFBFB" transform="translate(109.16015625,90.90234375)"/>
<path d="M0 0 C4.29 0 8.58 0 13 0 C13.41059874 36.13268921 13.41059874 36.13268921 5 48 C4.34 48 3.68 48 3 48 C-3.28994066 37.42685987 -3.59135186 29.68162398 -2.4375 17.8125 C-2.31918434 16.29906585 -2.20393191 14.78538901 -2.09179688 13.27148438 C-1.2461453 2.49229061 -1.2461453 2.49229061 0 0 Z " fill="#FFF9FA" transform="translate(27,110)"/>
<path d="M0 0 C4.62 0 9.24 0 14 0 C14.61296817 5.47505549 15.18693925 10.95215418 15.72998047 16.43457031 C15.97385769 18.75162446 16.26282184 21.05737599 16.56640625 23.3671875 C17.71983836 33.279569 16.0680212 39.42108875 11 48 C8 47 8 47 6.68359375 44.91015625 C2.66288821 35.72177275 1.67803632 26.88836798 1 17 C0.94360352 16.18547363 0.88720703 15.37094727 0.82910156 14.53173828 C0.50496409 9.68981488 0.23315228 4.84711322 0 0 Z " fill="#FFFAFB" transform="translate(73,110)"/>
<path d="M0 0 C7.26 0 14.52 0 22 0 C21 5 21 5 17 14 C9.74 14 2.48 14 -5 14 C-4 8 -4 8 0 0 Z " fill="#FFF6F7" transform="translate(96,151)"/>
<path d="M0 0 C2.4375 1.5625 2.4375 1.5625 4 4 C4 7.68736006 3.78378446 9.98761174 1.5 12.9375 C-2.28312021 14.54532609 -5.94720285 14.23381522 -10 14 C-10.61839323 4.99894292 -10.61839323 4.99894292 -8.375 1.375 C-5.27095134 -0.42208081 -3.53343747 -0.58890625 0 0 Z " fill="#FFF2F4" transform="translate(228,96)"/>
<path d="M0 0 C2.97 0 5.94 0 9 0 C9 3.96 9 7.92 9 12 C6.03 12 3.06 12 0 12 C0 8.04 0 4.08 0 0 Z " fill="#FF2842" transform="translate(193,110)"/>
</svg>
